<svg id="Layer_1" data-name="Layer 1" xmlns="http://www.w3.org/2000/svg" viewBox="0 0 798.41 261.68"><defs><style>.cls-1{fill:#232323;}</style></defs><path class="cls-1" d="M206.43,0H55.25A55.32,55.32,0,0,0,0,55.25V206.43a55.32,55.32,0,0,0,55.25,55.25H206.43a55.32,55.32,0,0,0,55.25-55.25V55.25A55.32,55.32,0,0,0,206.43,0ZM55.25,22H206.43a33.38,33.38,0,0,1,7.32.83L132,104.67,49.78,22.5A34,34,0,0,1,55.25,22ZM22,206.43V55.25a34,34,0,0,1,.46-5.47L104.67,132l-81.8,81.8A33.38,33.38,0,0,1,22,206.43Zm184.39,33.21H55.25a34.13,34.13,0,0,1-3.52-.19L132,159.23l80,80A34,34,0,0,1,206.43,239.64Zm33.21-33.21a34,34,0,0,1-.46,5.47l-80-80,80.22-80.22a34.13,34.13,0,0,1,.19,3.52Z"/><polygon class="cls-1" points="362.45 178.91 317.77 61.85 293.85 61.85 349.45 201.78 375.67 201.78 431.27 61.85 407.35 61.85 362.45 178.91"/><path class="cls-1" d="M507,61.85H448.05V201.78h21V147.86h38c28.53,0,44.69-19.72,44.69-43S535.74,61.85,507,61.85Zm-2.72,67.55H469V80.31h35.25c15.1,0,25.8,9.86,25.8,24.55S519.38,129.4,504.28,129.4Z"/><polygon class="cls-1" points="573.3 201.78 667.28 201.78 667.28 183.32 594.28 183.32 594.28 139.68 665.82 139.68 665.82 121.22 594.28 121.22 594.28 80.31 667.28 80.31 667.28 61.85 573.3 61.85 573.3 201.78"/><path class="cls-1" d="M762.53,145.77c17.84-2.31,34.83-15.74,34.83-40.91,0-25.81-18.25-43-44.9-43h-59V201.78h21V147.86h26.23l33.35,53.92h24.34Zm-48-16.37V80.31h35.25c15.1,0,26,9.86,26,24.55s-10.91,24.54-26,24.54Z"/></svg>