<svg id="Layer_1" data-name="Layer 1" xmlns="http://www.w3.org/2000/svg" viewBox="0 0 100 100"><defs><style>.cls-1{fill:none;}.cls-2{fill:#fff;}</style></defs><rect class="cls-1" width="100" height="100"/><path class="cls-2" d="M81.94,73.11l-9-13.43a30.4,30.4,0,1,0-45.78,0L18.2,72.9l-.14.21A11.6,11.6,0,0,0,28,90.71H72a11.6,11.6,0,0,0,9.94-17.6ZM50,19.29a20.4,20.4,0,1,1-20.4,20.4A20.42,20.42,0,0,1,50,19.29Zm23.4,60.6a1.54,1.54,0,0,1-1.4.82H28a1.61,1.61,0,0,1-1.42-2.36l8.29-12.3a30.35,30.35,0,0,0,30.26,0l8.29,12.3A1.54,1.54,0,0,1,73.4,79.89Z"/></svg>