<svg id="Layer_1" data-name="Layer 1" xmlns="http://www.w3.org/2000/svg" viewBox="0 0 100 100"><defs><style>.cls-1{fill:#fff;}.cls-2{fill:none;}</style></defs><path class="cls-1" d="M98.68,53.21,88.58,24.77A7.19,7.19,0,0,0,81.82,20H18.18a7.19,7.19,0,0,0-6.76,4.78L1.32,53.21A23.14,23.14,0,0,0,0,60.89V77.27A3.53,3.53,0,0,0,3.53,80.8H96.47A3.53,3.53,0,0,0,100,77.27V60.89A23.14,23.14,0,0,0,98.68,53.21ZM20.18,30H79.82l9.43,26.56c0,.14.08.27.12.4H70.71a7.17,7.17,0,0,0-5.64,2.73l-3.48,4.4-.12.16a4.69,4.69,0,0,1-3.92,2.09H42.45a4.72,4.72,0,0,1-3.93-2.09l-3.59-4.56A7.17,7.17,0,0,0,29.29,57H10.63c0-.13.07-.26.12-.4Z"/><rect class="cls-2" width="100" height="100"/></svg>