<svg id="Layer_1" data-name="Layer 1" xmlns="http://www.w3.org/2000/svg" viewBox="0 0 100 100"><defs><style>.cls-1{fill:none;}.cls-2{fill:#fff;}</style></defs><rect class="cls-1" width="100" height="100"/><path class="cls-2" d="M50,25.56h.56c10.46.29,19,9.32,19,20.14v5.11A45.81,45.81,0,0,0,73.72,70l.54,1.19H25.74L26.28,70a45.81,45.81,0,0,0,4.19-19.21V45.09A19.55,19.55,0,0,1,50,25.56m0-10A29.53,29.53,0,0,0,20.47,45.09v5.73a36.19,36.19,0,0,1-3.28,15.05l-2.72,5.92a6.66,6.66,0,0,0,6,9.43h59a6.66,6.66,0,0,0,6-9.43l-2.72-5.92a36.19,36.19,0,0,1-3.28-15.05V45.71c0-16.09-12.62-29.69-28.7-30.14Z"/><path class="cls-2" d="M50,92.22A15.3,15.3,0,0,0,65.29,76.93H34.71A15.3,15.3,0,0,0,50,92.22Z"/><path class="cls-2" d="M50,23.93a5,5,0,0,1-5-5V13.57a5,5,0,0,1,10,0v5.36A5,5,0,0,1,50,23.93Z"/></svg>