<?xml version="1.0" encoding="utf-8"?>
<!-- Generator: Adobe Illustrator 25.2.1, SVG Export Plug-In . SVG Version: 6.00 Build 0)  -->
<svg version="1.1" id="Layer_1" xmlns="http://www.w3.org/2000/svg" xmlns:xlink="http://www.w3.org/1999/xlink" x="0px" y="0px"
	 viewBox="0 0 261.68 261.68" style="enable-background:new 0 0 261.68 261.68;" xml:space="preserve">
<style type="text/css">
	.st0{fill:#434854;}
</style>
<g>
	<path class="st0" d="M206.43,0H55.25C24.79,0,0,24.79,0,55.25v151.17c0,30.47,24.79,55.25,55.25,55.25h151.17
		c30.47,0,55.25-24.79,55.25-55.25V55.25C261.68,24.79,236.89,0,206.43,0z M55.25,22.04h151.17c2.52,0,4.97,0.29,7.33,0.82
		l-81.8,81.8L49.78,22.5C51.56,22.21,53.39,22.04,55.25,22.04z M22.04,206.43V55.25c0-1.86,0.16-3.69,0.46-5.47l82.17,82.17
		l-81.8,81.8C22.34,211.39,22.04,208.94,22.04,206.43z M206.43,239.64H55.25c-1.19,0-2.37-0.07-3.52-0.19l80.22-80.22l79.95,79.95
		C210.12,239.47,208.29,239.64,206.43,239.64z M239.64,206.43c0,1.86-0.16,3.69-0.46,5.47l-79.95-79.95l80.22-80.22
		c0.12,1.16,0.19,2.33,0.19,3.52V206.43z"/>
</g>
</svg>
