<svg id="Layer_1" data-name="Layer 1" xmlns="http://www.w3.org/2000/svg" viewBox="0 0 1000 1000"><defs><style>.cls-1{fill:#8b99b2;}.cls-2{fill:none;}</style></defs><path class="cls-1" d="M704.1,530.17a241.72,241.72,0,0,0,38-115.67l2.24-34.67C753.47,238.68,641.44,119.19,500,119.19S246.53,238.68,255.62,379.83l2.24,34.67a241.72,241.72,0,0,0,38,115.67A253.52,253.52,0,0,0,191.26,735.56V880.81H808.74V735.56A253.52,253.52,0,0,0,704.1,530.17ZM335.77,303.74a174.89,174.89,0,0,1,338.75,71.58L672.29,410a172.64,172.64,0,0,1-344.58,0l-2.23-34.68A173.45,173.45,0,0,1,335.77,303.74ZM261.26,810.81V735.56a182.65,182.65,0,0,1,53.85-130,186.14,186.14,0,0,1,27.05-22.38,242.06,242.06,0,0,0,100.42,51.51,63.5,63.5,0,0,0,16.25,75.37L432.41,810.81Zm477.48,0H567.59L541.17,710.06a63.5,63.5,0,0,0,16.25-75.37,242.06,242.06,0,0,0,100.42-51.51,186.14,186.14,0,0,1,27,22.38,182.65,182.65,0,0,1,53.85,130Z"/><rect class="cls-2" width="1000" height="1000"/></svg>