<svg id="Layer_1" data-name="Layer 1" xmlns="http://www.w3.org/2000/svg" viewBox="0 0 1000 1000"><defs><style>.cls-1{fill:#8b99b2;}.cls-2{fill:none;}</style></defs><path class="cls-1" d="M500,443.06A56.94,56.94,0,1,1,443.06,500,57,57,0,0,1,500,443.06m0-70A126.94,126.94,0,1,0,626.94,500,126.95,126.95,0,0,0,500,373.06Z"/><path class="cls-1" d="M654.84,696.94a56.94,56.94,0,1,1-56.94,56.93,57,57,0,0,1,56.94-56.93m0-70A126.94,126.94,0,1,0,781.77,753.87,126.93,126.93,0,0,0,654.84,626.94Z"/><path class="cls-1" d="M345.16,696.94a56.94,56.94,0,1,1-56.93,56.93,57,57,0,0,1,56.93-56.93m0-70A126.94,126.94,0,1,0,472.1,753.87,126.93,126.93,0,0,0,345.16,626.94Z"/><path class="cls-1" d="M654.84,189.19a56.94,56.94,0,1,1-56.94,56.94,57,57,0,0,1,56.94-56.94m0-70A126.94,126.94,0,1,0,781.77,246.13,126.94,126.94,0,0,0,654.84,119.19Z"/><path class="cls-1" d="M345.16,189.19a56.94,56.94,0,1,1-56.93,56.94,57,57,0,0,1,56.93-56.94m0-70A126.94,126.94,0,1,0,472.1,246.13,126.93,126.93,0,0,0,345.16,119.19Z"/><path class="cls-1" d="M809.68,443.06A56.94,56.94,0,1,1,752.74,500a57,57,0,0,1,56.94-56.94m0-70A126.94,126.94,0,1,0,936.61,500,126.94,126.94,0,0,0,809.68,373.06Z"/><path class="cls-1" d="M190.32,443.06A56.94,56.94,0,1,1,133.39,500a57,57,0,0,1,56.93-56.94m0-70A126.94,126.94,0,1,0,317.26,500,126.94,126.94,0,0,0,190.32,373.06Z"/><rect class="cls-2" width="1000" height="1000"/></svg>