<svg id="Layer_1" data-name="Layer 1" xmlns="http://www.w3.org/2000/svg" viewBox="0 0 1000 1000"><defs><style>.cls-1{fill:#8b99b2;}.cls-2{fill:none;}</style></defs><path class="cls-1" d="M500,316.13a56.94,56.94,0,1,1-56.94,56.93A57,57,0,0,1,500,316.13m0-70A126.94,126.94,0,1,0,626.94,373.06,126.94,126.94,0,0,0,500,246.13Z"/><path class="cls-1" d="M654.84,570a56.94,56.94,0,1,1-56.94,56.94A57,57,0,0,1,654.84,570m0-70A126.94,126.94,0,1,0,781.77,626.94,126.94,126.94,0,0,0,654.84,500Z"/><path class="cls-1" d="M345.16,570a56.94,56.94,0,1,1-56.93,56.94A57,57,0,0,1,345.16,570m0-70A126.94,126.94,0,1,0,472.1,626.94,126.93,126.93,0,0,0,345.16,500Z"/><rect class="cls-2" width="1000" height="1000"/></svg>