<svg id="Layer_1" data-name="Layer 1" xmlns="http://www.w3.org/2000/svg" viewBox="0 0 1000 1000"><defs><style>.cls-1{fill:none;}.cls-2{fill:#8b99b2;}</style></defs><path class="cls-1" d="M410.62,755.31a75.13,75.13,0,1,1-75.13-75.13A75.21,75.21,0,0,1,410.62,755.31Z"/><path class="cls-1" d="M707.39,549.19V690q-1.41,0-2.82,0a105.2,105.2,0,0,0-82.43,39.7H478.76A145.58,145.58,0,0,0,335.49,609.8c-4.33,0-8.62.19-12.84.56V549.19Z"/><path class="cls-1" d="M737.11,795.37a32.54,32.54,0,1,1-32.54-32.53A32.58,32.58,0,0,1,737.11,795.37Z"/><path class="cls-1" d="M707.39,549.19V690q-1.41,0-2.82,0a105.2,105.2,0,0,0-82.43,39.7H478.76A145.58,145.58,0,0,0,335.49,609.8c-4.33,0-8.62.19-12.84.56V549.19Z"/><path class="cls-2" d="M763.53,708.15V524.22a44,44,0,0,0-44-44H567.92V365.69H750.66a12.87,12.87,0,0,0,12.87-12.87v-4.76c0-126.4-102.46-228.87-228.86-228.87h0c-126.4,0-228.87,102.47-228.87,228.87v4.76a12.88,12.88,0,0,0,12.88,12.87H501.42V480.23h-170C330.08,427.78,308.92,403,286.11,384a33.25,33.25,0,1,0-42.48,51.16C255.57,445.1,265,452.93,265,485.61V628.89A138.27,138.27,0,1,0,475.44,784.65H594.25a100.19,100.19,0,1,0,169.28-76.5ZM423,236.4a158.08,158.08,0,0,1,260.4,58.34H385.94A157.36,157.36,0,0,1,423,236.4ZM343.71,813.94a71.38,71.38,0,1,1,71.38-71.39A71.46,71.46,0,0,1,343.71,813.94ZM616,718.15H479.82A138.3,138.3,0,0,0,343.71,604.31c-4.11,0-8.19.18-12.21.53V546.73H697V680.46l-2.67,0A100,100,0,0,0,616,718.15Zm78.33,93.38a30.91,30.91,0,1,1,30.9-30.92A31,31,0,0,1,694.36,811.53Z"/><rect class="cls-1" width="1000" height="1000"/></svg>