<svg id="Layer_1" data-name="Layer 1" xmlns="http://www.w3.org/2000/svg" viewBox="0 0 100 100"><defs><style>.cls-1{fill:#231f20;}.cls-2{fill:#5684c3;}</style></defs><path class="cls-1" d="M50,5A45,45,0,1,1,5,50,45.05,45.05,0,0,1,50,5m0-5a50,50,0,1,0,50,50A50,50,0,0,0,50,0Z"/><path class="cls-2" d="M27.66,79a2.53,2.53,0,0,1-2-4.09L43.39,52.17h11.7L72.82,74.94a2.53,2.53,0,0,1-2,4.09Z"/><path d="M54.11,54.17l17.13,22a.49.49,0,0,1,.06.56.48.48,0,0,1-.48.3H27.66a.47.47,0,0,1-.47-.3.48.48,0,0,1,0-.56l17.13-22h9.74m2-4H42.42L24.09,73.71A4.53,4.53,0,0,0,27.66,81H70.82a4.54,4.54,0,0,0,3.58-7.32L56.07,50.17Z"/><path class="cls-2" d="M50,68.21A25.22,25.22,0,1,1,75.18,43,25.25,25.25,0,0,1,50,68.21Z"/><path d="M50,19.77A23.22,23.22,0,1,1,26.73,43,23.24,23.24,0,0,1,50,19.77m0-4A27.22,27.22,0,1,0,77.18,43,27.22,27.22,0,0,0,50,15.77Z"/></svg>